<svg xmlns="http://www.w3.org/2000/svg" xmlns:xlink="http://www.w3.org/1999/xlink">
  <symbol id="rosace">
    <path 
      d="M12.4 14a7 7 0 0 1-3.8 4.7v-.9c0-2 1-3.8 2-4.9a8 8 0 0 1-5.3-.9 8 8 0 0 1 5.5-1 7 7 0 0 1-2.2-5.7l.3.2c2 1 3 3 3.4 4.5a7 7 0 0 1 3.6-4.6v1.1c0 2-1.1 3.7-2.2 4.6a8 8 0 0 1 5.7.9 8 8 0 0 1-5.5 1 7 7 0 0 1 2 5.6l-.2-.1c-2-1-3-3-3.3-4.5m3.6 4.6c3 1.4 6.2.3 6.6-.2s-.3-4.5-3-6.3l-.2-.1c2.8-1.9 3.5-5.8 3-6.4-.3-.5-3.4-1.6-6.5-.2-.5-3.7-3.3-5.4-3.7-5.4-.8 0-3.2 2.4-3.6 5.3-3.1-1.2-6.1-.2-6.5.3s.3 4.5 3 6.3l.2.1h-.1c-2.8 1.9-3.4 5.8-3 6.4.3.5 3.3 1.5 6.4.3.4 2.9 2.9 5.3 3.7 5.3s3.3-2.4 3.7-5.4" 
    />
  </symbol>
</svg>
