<svg
  xmlns="http://www.w3.org/2000/svg"
  xmlns:xlink="http://www.w3.org/1999/xlink"
>
  <symbol id="rosace">
    <path
      d="M12.4 14a7 7 0 0 1-3.8 4.7v-.9c0-2 1-3.8 2-4.9a8 8 0 0 1-5.3-.9 8 8 0 0 1 5.5-1 7 7 0 0 1-2.2-5.7l.3.2c2 1 3 3 3.4 4.5a7 7 0 0 1 3.6-4.6v1.1c0 2-1.1 3.7-2.2 4.6a8 8 0 0 1 5.7.9 8 8 0 0 1-5.5 1 7 7 0 0 1 2 5.6l-.2-.1c-2-1-3-3-3.3-4.5m3.6 4.6c3 1.4 6.2.3 6.6-.2s-.3-4.5-3-6.3l-.2-.1c2.8-1.9 3.5-5.8 3-6.4-.3-.5-3.4-1.6-6.5-.2-.5-3.7-3.3-5.4-3.7-5.4-.8 0-3.2 2.4-3.6 5.3-3.1-1.2-6.1-.2-6.5.3s.3 4.5 3 6.3l.2.1h-.1c-2.8 1.9-3.4 5.8-3 6.4.3.5 3.3 1.5 6.4.3.4 2.9 2.9 5.3 3.7 5.3s3.3-2.4 3.7-5.4"
    />
  </symbol>

  <symbol id="chats-teardrop">
    <path
      d="M21.7 14.3v6a1 1 0 0 1-.7.7h-6a7 7 0 0 1-6.4-4.5H9a6.8 6.8 0 0 0 6.4-9 7 7 0 0 1 6.3 6.8"
      opacity=".3"
    />
    <path
      d="M15.9 6.8a7.5 7.5 0 0 0-14.4 3v6A1.5 1.5 0 0 0 3 17.2h5.1a8 8 0 0 0 6.9 4.6h6a1.5 1.5 0 0 0 1.5-1.6v-6a7.5 7.5 0 0 0-6.6-7.4M3 9.8a6 6 0 1 1 6 6H3zm18 10.5h-6a6 6 0 0 1-5.2-3 7.5 7.5 0 0 0 6.6-8.9 6 6 0 0 1 4.6 5.9z"
    />
  </symbol>

  <symbol id="terminal-window">
    <path
      d="M21 5.3v13.5a1 1 0 0 1-.7.7H3.8a1 1 0 0 1-.8-.7V5.3a1 1 0 0 1 .8-.8h16.5a1 1 0 0 1 .7.8"
      opacity=".3"
    />
    <path
      d="m12 12-.3.6-3.7 3a.7.7 0 1 1-1-1.2l3-2.4-3-2.4a.8.8 0 0 1 1-1.2l3.7 3zm4.5 2.3h-3.7a.7.7 0 1 0 0 1.4h3.7a.7.7 0 1 0 0-1.4m5.3-9v13.5a1.5 1.5 0 0 1-1.6 1.4H3.9a1.5 1.5 0 0 1-1.5-1.4V5.3a1.5 1.5 0 0 1 1.5-1.5h16.5a1.5 1.5 0 0 1 1.4 1.5m-1.6 13.5V5.3H3.9v13.5z"
    />
  </symbol>

  <symbol id="arrow-u-down-left">
    <path
      d="M21.8 10.5a6 6 0 0 1-6 6h-11L8 19.7a.8.8 0 1 1-1 1l-4.5-4.4a1 1 0 0 1 0-1L7 10.6a.8.8 0 1 1 1 1L4.8 15h11a4.5 4.5 0 1 0 0-9H7.5a.8.8 0 0 1 0-1.5h8.3a6 6 0 0 1 6 6"
    />
  </symbol>
</svg>
