<svg
  xmlns="http://www.w3.org/2000/svg"
>
  <symbol id="chats-teardrop">
    <path
      d="M21.7 14.3v6a1 1 0 0 1-.7.7h-6a7 7 0 0 1-6.4-4.5H9a6.8 6.8 0 0 0 6.4-9 7 7 0 0 1 6.3 6.8"
      opacity="0.3"
    />
    <path
      d="M15.9 6.8a7.5 7.5 0 0 0-14.4 3v6A1.5 1.5 0 0 0 3 17.2h5.1a8 8 0 0 0 6.9 4.6h6a1.5 1.5 0 0 0 1.5-1.6v-6a7.5 7.5 0 0 0-6.6-7.4M3 9.8a6 6 0 1 1 6 6H3zm18 10.5h-6a6 6 0 0 1-5.2-3 7.5 7.5 0 0 0 6.6-8.9 6 6 0 0 1 4.6 5.9z"
    />
  </symbol>

  <symbol id="terminal-window">
    <path
      d="M21 5.3v13.5a1 1 0 0 1-.7.7H3.8a1 1 0 0 1-.8-.7V5.3a1 1 0 0 1 .8-.8h16.5a1 1 0 0 1 .7.8"
      opacity="0.3"
    />
    <path
      d="m12 12-.3.6-3.7 3a.7.7 0 1 1-1-1.2l3-2.4-3-2.4a.8.8 0 0 1 1-1.2l3.7 3zm4.5 2.3h-3.7a.7.7 0 1 0 0 1.4h3.7a.7.7 0 1 0 0-1.4m5.3-9v13.5a1.5 1.5 0 0 1-1.6 1.4H3.9a1.5 1.5 0 0 1-1.5-1.4V5.3a1.5 1.5 0 0 1 1.5-1.5h16.5a1.5 1.5 0 0 1 1.4 1.5m-1.6 13.5V5.3H3.9v13.5z"
    />
  </symbol>

  <symbol id="arrow-u-down-left">
    <path
      d="M21.8 10.5a6 6 0 0 1-6 6h-11L8 19.7a.8.8 0 1 1-1 1l-4.5-4.4a1 1 0 0 1 0-1L7 10.6a.8.8 0 1 1 1 1L4.8 15h11a4.5 4.5 0 1 0 0-9H7.5a.8.8 0 0 1 0-1.5h8.3a6 6 0 0 1 6 6"
    />
  </symbol>
</svg>
