<svg
  xmlns="http://www.w3.org/2000/svg"
  xmlns:xlink="http://www.w3.org/1999/xlink"
>
  <symbol id="rosace">
    <path
      d="M12.4 14a7 7 0 0 1-3.8 4.7v-.9c0-2 1-3.8 2-4.9a8 8 0 0 1-5.3-.9 8 8 0 0 1 5.5-1 7 7 0 0 1-2.2-5.7l.3.2c2 1 3 3 3.4 4.5a7 7 0 0 1 3.6-4.6v1.1c0 2-1.1 3.7-2.2 4.6a8 8 0 0 1 5.7.9 8 8 0 0 1-5.5 1 7 7 0 0 1 2 5.6l-.2-.1c-2-1-3-3-3.3-4.5m3.6 4.6c3 1.4 6.2.3 6.6-.2s-.3-4.5-3-6.3l-.2-.1c2.8-1.9 3.5-5.8 3-6.4-.3-.5-3.4-1.6-6.5-.2-.5-3.7-3.3-5.4-3.7-5.4-.8 0-3.2 2.4-3.6 5.3-3.1-1.2-6.1-.2-6.5.3s.3 4.5 3 6.3l.2.1h-.1c-2.8 1.9-3.4 5.8-3 6.4.3.5 3.3 1.5 6.4.3.4 2.9 2.9 5.3 3.7 5.3s3.3-2.4 3.7-5.4"
    />
  </symbol>

  <symbol id="crosspost">
    <path 
      d="M.2 0h6.9l2.2 3.2L24 24h-6.8L16 22.2l-2.4-4-.9-1.4-.6-1-1 1.5L8 22.6 7 24H0l.8-1.2 7.4-11-.7-1L2.2 3zm16.6 0h7l-1.3 2-2.4 3.7-.2.1h-6.7l1-1.6z" 
    />
  </symbol>

  <symbol id="remark">
    <path 
      d="M11.8 1C5.8 1 1 5.6 1 11.3a10 10 0 0 0 3 7.1l.3.8q-.3 1-1 2a.7.7 0 0 0 .5 1.2q2.4.4 4.7-.8.2-.2 1.2-.2 1 .3 2 .2c6 0 10.8-4.6 10.8-10.3S17.7 1 11.8 1M9.5 12.5v.3c0 1.2-1 2.2-2.2 2.2a.8.8 0 0 0 0 1.5c2 0 3.7-1.7 3.7-3.7v-4Q10.8 7.2 9.3 7h-2q-1.6.1-1.8 1.8v2q.1 1.6 1.8 1.7zm7 0v.3c0 1.2-1 2.2-2.2 2.2a.8.8 0 0 0 0 1.5c2 0 3.7-1.7 3.7-3.7v-4q-.2-1.6-1.7-1.8h-2q-1.7.1-1.8 1.8v2q.2 1.6 1.8 1.7z" 
    />
  </symbol>

  <symbol id="plus">
    <path
      d="M8 2.75C8 2.47386 7.77614 2.25 7.5 2.25C7.22386 2.25 7 2.47386 7 2.75V7H2.75C2.47386 7 2.25 7.22386 2.25 7.5C2.25 7.77614 2.47386 8 2.75 8H7V12.25C7 12.5261 7.22386 12.75 7.5 12.75C7.77614 12.75 8 12.5261 8 12.25V8H12.25C12.5261 8 12.75 7.77614 12.75 7.5C12.75 7.22386 12.5261 7 12.25 7H8V2.75Z"
      fill="currentColor"
      fill-rule="evenodd"
      clip-rule="evenodd"
    />
  </symbol>

  <symbol id="minus">
    <path
      d="M2.25 7.5C2.25 7.22386 2.47386 7 2.75 7H12.25C12.5261 7 12.75 7.22386 12.75 7.5C12.75 7.77614 12.5261 8 12.25 8H2.75C2.47386 8 2.25 7.77614 2.25 7.5Z"
      fill="currentColor"
      fill-rule="evenodd"
      clip-rule="evenodd"
    />
  </symbol>
</svg>
